<?xml version="1.0" encoding="UTF-8"?>
<!DOCTYPE svg PUBLIC "-//W3C//DTD SVG 1.1//EN" "http://www.w3.org/Graphics/SVG/1.1/DTD/svg11.dtd">
<!-- Creator: CorelDRAW X8 -->
<svg xmlns="http://www.w3.org/2000/svg" xml:space="preserve" width="179.099mm" height="167.212mm" version="1.1" style="shape-rendering:geometricPrecision; text-rendering:geometricPrecision; image-rendering:optimizeQuality; fill-rule:evenodd; clip-rule:evenodd"
viewBox="0 0 17281 16134"
 xmlns:xlink="http://www.w3.org/1999/xlink">
 <defs>
  <style type="text/css">
   <![CDATA[
    .fil0 {fill:#240000}
   ]]>
  </style>
 </defs>
 <g id="Vrstva_x0020_1">
  <metadata id="CorelCorpID_0Corel-Layer"/>
  <ellipse class="fil0" transform="matrix(2.56083 -0.519941 0.601092 2.2151 498.964 7308.34)" rx="191" ry="153"/>
  <ellipse class="fil0" transform="matrix(2.46783 -0.50545 0.579263 2.15337 1371.89 5977.01)" rx="191" ry="153"/>
  <ellipse class="fil0" transform="matrix(2.32903 -0.494786 0.546681 2.10794 2548.12 4924.17)" rx="191" ry="153"/>
  <ellipse class="fil0" transform="matrix(2.8134 -0.597688 0.660376 2.54633 3996.73 3991.14)" rx="191" ry="153"/>
  <ellipse class="fil0" transform="matrix(4.69751 -0.997955 1.10262 4.25159 6248.74 2944.57)" rx="191" ry="153"/>
  <path class="fil0" d="M1851 10558c0,0 58,-1525 886,-2890 828,-1365 1568,-1743 1989,-2004 422,-262 1251,-596 2237,-1104 985,-508 1263,-813 1437,-1292 175,-480 44,-828 44,-828 0,0 -508,915 -1554,1380 -1045,464 -1084,384 -2803,1074 -1718,691 -2396,1656 -2933,2643 -537,988 15,2280 276,2599 261,320 421,422 421,422z"/>
  <path class="fil0" d="M4146 13941c0,0 -407,-1597 -175,-2730 233,-1133 741,-2193 1583,-3006 842,-813 1844,-1162 3282,-2251 1438,-1089 2309,-1844 2440,-3412 130,-1569 -1133,-2745 -2556,-2513 -1423,233 -1438,1365 -1089,1641 348,276 697,276 915,262 217,-15 653,-73 653,-73 0,0 261,595 131,1060 -131,465 -291,668 -552,901 -261,232 -1510,1248 -2483,1974 -973,727 -1990,1569 -2687,2469 -697,901 -1336,2106 -1089,3326 247,1220 1627,2352 1627,2352z"/>
  <path class="fil0" d="M6629 16134c0,0 116,-2469 1176,-3645 1060,-1176 1351,-1641 2948,-2425 1597,-784 2396,-697 2948,-726 552,-29 1408,116 1771,72 364,-43 625,-87 494,-493 -130,-407 -450,-814 -450,-814 0,0 436,-319 508,-435 73,-116 87,-145 -87,-203 -174,-59 -537,-44 -537,-175 0,-130 363,-203 494,-319 130,-116 43,-189 -102,-276 -145,-87 -378,-262 -378,-262 0,0 276,-261 523,-435 247,-174 189,-508 -29,-610 -218,-102 -1365,-799 -1365,-799 0,0 254,-58 312,-174 58,-116 15,-240 15,-240 0,0 -109,87 -225,131 -116,44 -291,116 -298,73 -7,-44 -22,-654 -385,-1162 -363,-508 -1002,-1046 -1481,-1336 -479,-290 -1017,-595 -1133,-581 -116,15 87,87 233,523 145,436 551,1539 319,2178 -232,639 -189,726 -828,1336 -639,610 -1568,1191 -2236,1670 -668,479 -915,625 -1830,1380 -915,755 -1553,1379 -2076,2439 -523,1060 -378,2208 145,3224 523,1017 1554,2084 1554,2084z"/>
  <path class="fil0" d="M7667 15778c0,0 1423,-1830 2091,-2439 668,-610 1380,-1293 2178,-1612 799,-320 1307,-436 2309,-334 1002,101 1743,769 1845,1510 101,741 -160,1365 -741,1684 -581,320 -1438,44 -1728,-435 -290,-479 -334,-1118 -334,-1118 0,0 -552,740 14,1713 567,973 1787,988 2338,813 552,-174 1612,-798 1641,-2309 29,-1510 -1248,-2381 -1510,-2541 -261,-160 -1103,-639 -2556,-566 -1452,72 -2570,697 -3282,1394 -711,697 -1365,1684 -1728,2556 -363,871 -537,1684 -537,1684z"/>
  <ellipse class="fil0" cx="8651" cy="15473" rx="367" ry="341"/>
  <ellipse class="fil0" cx="9670" cy="14312" rx="351" ry="327"/>
  <ellipse class="fil0" cx="10698" cy="13172" rx="317" ry="319"/>
  <ellipse class="fil0" transform="matrix(1.92214 0.40549 -0.77983 3.69663 11834.8 12430.9)" rx="161" ry="85"/>
  <ellipse class="fil0" transform="matrix(1.91981 0.40549 -0.778884 3.69663 13250.3 11915.4)" rx="161" ry="85"/>
  <ellipse class="fil0" transform="matrix(1.91981 0.40549 -0.778884 3.69663 14978.8 12191.3)" rx="161" ry="85"/>
  <ellipse class="fil0" transform="matrix(4.21775 0.811134 -1.71118 7.39465 14671.8 13672.5)" rx="161" ry="85"/>
 </g>
</svg>
