<?xml version="1.0" encoding="UTF-8"?>
<!DOCTYPE svg PUBLIC "-//W3C//DTD SVG 1.1//EN" "http://www.w3.org/Graphics/SVG/1.1/DTD/svg11.dtd">
<!-- Creator: CorelDRAW X8 -->
<svg xmlns="http://www.w3.org/2000/svg" xml:space="preserve" width="43.3609mm" height="40.4829mm" version="1.1" style="shape-rendering:geometricPrecision; text-rendering:geometricPrecision; image-rendering:optimizeQuality; fill-rule:evenodd; clip-rule:evenodd"
viewBox="0 0 2158 2015"
 xmlns:xlink="http://www.w3.org/1999/xlink">
 <defs>
  <style type="text/css">
   <![CDATA[
    .fil0 {fill:silver}
   ]]>
  </style>
 </defs>
 <g id="Vrstva_x0020_1">
  <metadata id="CorelCorpID_0Corel-Layer"/>
  <ellipse class="fil0" transform="matrix(0.61999 -0.12588 0.145527 0.536287 62.305 912.553)" rx="99" ry="79"/>
  <ellipse class="fil0" transform="matrix(0.597474 -0.122372 0.140242 0.521341 171.302 746.317)" rx="99" ry="79"/>
  <ellipse class="fil0" transform="matrix(0.563868 -0.11979 0.132354 0.510342 318.171 614.855)" rx="99" ry="79"/>
  <ellipse class="fil0" transform="matrix(0.681138 -0.144703 0.15988 0.616479 499.051 498.352)" rx="99" ry="79"/>
  <ellipse class="fil0" transform="matrix(1.13729 -0.24161 0.266951 1.02933 780.248 367.673)" rx="99" ry="79"/>
  <path class="fil0" d="M231 1318c0,0 7,-190 111,-361 103,-170 196,-217 248,-250 53,-32 156,-74 279,-138 123,-63 158,-101 180,-161 22,-60 5,-103 5,-103 0,0 -63,114 -194,172 -130,58 -135,48 -350,134 -214,86 -299,207 -366,330 -67,123 2,285 35,325 32,40 52,52 52,52z"/>
  <path class="fil0" d="M518 1741c0,0 -51,-200 -22,-341 29,-142 92,-274 198,-375 105,-102 230,-146 409,-282 180,-136 289,-230 305,-426 16,-195 -141,-342 -319,-313 -178,29 -180,170 -136,205 43,34 87,34 114,32 27,-2 82,-9 82,-9 0,0 32,74 16,133 -16,58 -36,83 -69,112 -33,29 -189,156 -310,247 -121,90 -248,195 -335,308 -87,112 -167,263 -136,415 30,152 203,294 203,294z"/>
  <path class="fil0" d="M828 2015c0,0 14,-309 147,-456 132,-146 168,-204 368,-302 199,-98 299,-87 368,-91 69,-4 176,14 221,9 45,-5 78,-11 62,-62 -17,-50 -57,-101 -57,-101 0,0 55,-40 64,-55 9,-14 11,-18 -11,-25 -22,-7 -67,-5 -67,-22 0,-16 45,-25 62,-40 16,-14 5,-23 -13,-34 -18,-11 -47,-33 -47,-33 0,0 34,-32 65,-54 31,-22 24,-64 -4,-76 -27,-13 -170,-100 -170,-100 0,0 32,-7 39,-22 7,-14 2,-30 2,-30 0,0 -14,11 -28,17 -15,5 -37,14 -38,9 0,-6 -2,-82 -48,-145 -45,-64 -125,-131 -185,-167 -59,-36 -126,-74 -141,-73 -15,2 11,11 29,66 18,54 69,192 40,272 -29,79 -24,90 -103,166 -80,77 -196,149 -280,209 -83,60 -114,78 -228,172 -114,94 -194,172 -259,305 -66,132 -48,275 18,402 65,127 194,261 194,261z"/>
  <path class="fil0" d="M957 1970c0,0 178,-228 261,-304 84,-77 173,-162 272,-202 100,-40 164,-54 289,-41 125,12 217,96 230,188 13,93 -20,171 -92,210 -73,40 -180,6 -216,-54 -36,-60 -42,-140 -42,-140 0,0 -69,93 2,214 71,122 223,124 292,102 69,-22 201,-100 205,-288 3,-189 -156,-298 -189,-318 -33,-20 -138,-79 -319,-70 -181,9 -321,87 -410,174 -89,87 -170,210 -216,319 -45,109 -67,210 -67,210z"/>
  <ellipse class="fil0" cx="1080" cy="1932" rx="46" ry="43"/>
  <ellipse class="fil0" cx="1207" cy="1787" rx="44" ry="41"/>
  <circle class="fil0" cx="1336" cy="1645" r="40"/>
  <ellipse class="fil0" transform="matrix(0.46536 0.0981711 -0.188801 0.894971 1477.75 1552.18)" rx="83" ry="44"/>
  <ellipse class="fil0" transform="matrix(0.464796 0.0981711 -0.188572 0.894971 1654.49 1487.82)" rx="83" ry="44"/>
  <ellipse class="fil0" transform="matrix(0.464796 0.0981711 -0.188572 0.894971 1870.32 1522.27)" rx="83" ry="44"/>
  <ellipse class="fil0" transform="matrix(1.02114 0.196379 -0.414284 1.79028 1831.99 1707.22)" rx="83" ry="44"/>
 </g>
</svg>
