<?xml version="1.0" encoding="UTF-8"?>
<!DOCTYPE svg PUBLIC "-//W3C//DTD SVG 1.1//EN" "http://www.w3.org/Graphics/SVG/1.1/DTD/svg11.dtd">
<!-- Creator: CorelDRAW X8 -->
<svg xmlns="http://www.w3.org/2000/svg" xml:space="preserve" width="210mm" height="297mm" version="1.1" style="shape-rendering:geometricPrecision; text-rendering:geometricPrecision; image-rendering:optimizeQuality; fill-rule:evenodd; clip-rule:evenodd"

 xmlns:xlink="http://www.w3.org/1999/xlink">
 <defs>
  <style type="text/css">
   <![CDATA[
    .str0 {stroke:#2B2A29;stroke-width:20}
    .fil0 {fill:none}
   ]]>
  </style>
 </defs>
 <g id="Vrstva_x0020_1">
  <metadata id="CorelCorpID_0Corel-Layer"/>
  <ellipse class="fil0 str0" transform="matrix(1.12549 -0.228515 0.264181 0.973541 6370.57 13979)" rx="198" ry="159"/>
  <ellipse class="fil0 str0" transform="matrix(1.08462 -0.222146 0.254587 0.946409 6768.18 13372.6)" rx="198" ry="159"/>
  <ellipse class="fil0 str0" transform="matrix(1.02361 -0.217459 0.240267 0.926441 7303.95 12893.1)" rx="198" ry="159"/>
  <ellipse class="fil0 str0" transform="matrix(1.23649 -0.262685 0.290236 1.11912 7963.79 12468.1)" rx="198" ry="159"/>
  <ellipse class="fil0 str0" transform="matrix(2.06456 -0.438602 0.484605 1.86858 8989.58 11991.3)" rx="198" ry="159"/>
  <path class="fil0 str0" d="M6986 15459c0,0 27,-694 404,-1316 377,-622 714,-794 906,-913 192,-119 570,-271 1019,-503 449,-231 575,-370 655,-588 79,-219 20,-377 20,-377 0,0 -232,416 -708,628 -477,212 -494,175 -1277,489 -782,315 -1091,754 -1336,1204 -245,450 7,1039 126,1184 119,146 191,192 191,192z"/>
  <path class="fil0 str0" d="M8032 17000c0,0 -186,-727 -80,-1243 106,-516 338,-999 721,-1369 384,-371 840,-530 1495,-1026 655,-496 1052,-840 1111,-1554 60,-715 -516,-1250 -1164,-1145 -648,106 -655,622 -496,748 159,126 318,126 417,119 99,-7 297,-33 297,-33 0,0 120,271 60,483 -60,211 -132,304 -251,410 -119,106 -688,569 -1131,899 -444,331 -907,715 -1224,1125 -318,410 -609,959 -496,1515 112,555 741,1071 741,1071z"/>
  <path class="fil0 str0" d="M9163 17999c0,0 53,-1124 535,-1660 483,-536 616,-748 1343,-1105 728,-357 1092,-317 1343,-331 251,-13 642,53 807,34 165,-20 284,-40 225,-225 -60,-186 -205,-371 -205,-371 0,0 198,-145 231,-198 33,-53 40,-66 -39,-93 -80,-26 -245,-20 -245,-79 0,-60 165,-93 225,-146 59,-53 20,-86 -47,-125 -66,-40 -171,-119 -171,-119 0,0 125,-119 238,-199 112,-79 86,-231 -14,-278 -99,-46 -621,-363 -621,-363 0,0 115,-27 142,-80 26,-53 6,-109 6,-109 0,0 -49,40 -102,60 -53,19 -132,52 -136,33 -3,-20 -10,-298 -175,-530 -165,-231 -456,-476 -675,-608 -218,-132 -463,-271 -516,-265 -52,7 40,40 106,238 66,199 252,702 146,993 -106,291 -86,330 -377,608 -291,278 -715,543 -1019,761 -304,218 -417,284 -833,628 -417,344 -708,629 -946,1111 -238,483 -172,1006 66,1469 238,463 708,949 708,949z"/>
  <path class="fil0 str0" d="M9636 17837c0,0 648,-833 952,-1111 304,-278 629,-589 992,-734 364,-146 596,-199 1052,-153 456,47 794,351 840,688 46,338 -73,622 -337,768 -265,145 -655,20 -787,-199 -133,-218 -153,-509 -153,-509 0,0 -251,337 7,780 258,444 814,450 1065,371 251,-80 734,-364 747,-1052 14,-688 -568,-1085 -687,-1157 -119,-73 -503,-291 -1165,-258 -661,33 -1170,317 -1494,635 -325,317 -622,767 -788,1164 -165,397 -244,767 -244,767z"/>
  <ellipse class="fil0 str0" cx="10084" cy="17698" rx="167" ry="155"/>
  <ellipse class="fil0 str0" cx="10548" cy="17169" rx="160" ry="149"/>
  <ellipse class="fil0 str0" cx="11016" cy="16650" rx="144" ry="146"/>
  <ellipse class="fil0 str0" transform="matrix(0.844784 0.178213 -0.342736 1.62467 11534 16312.4)" rx="167" ry="88"/>
  <ellipse class="fil0 str0" transform="matrix(0.84376 0.178213 -0.342321 1.62467 12178.8 16077.6)" rx="167" ry="88"/>
  <ellipse class="fil0 str0" transform="matrix(0.84376 0.178213 -0.342321 1.62467 12966.1 16203.2)" rx="167" ry="88"/>
  <ellipse class="fil0 str0" transform="matrix(1.85371 0.356494 -0.752064 3.24996 12826.3 16877.9)" rx="167" ry="88"/>
 </g>
</svg>
